<?xml version="1.0" encoding="iso-8859-1"?>
<!-- Uploaded to: SVG Repo, www.svgrepo.com, Generator: SVG Repo Mixer Tools -->
<svg fill="#000000" height="800px" width="800px" version="1.1" id="Layer_1" xmlns="http://www.w3.org/2000/svg" xmlns:xlink="http://www.w3.org/1999/xlink" 
	 viewBox="0 0 330.001 330.001" xml:space="preserve">
<g id="XMLID_789_">
	<path id="XMLID_790_" d="M292.28,330.001c8.284,0,15-6.716,15-15v-300c0-6.067-3.654-11.537-9.26-13.858
		c-5.607-2.323-12.057-1.039-16.347,3.251l-31.82,31.82l-31.82-31.82c-5.857-5.858-15.355-5.858-21.213,0l-31.819,31.819
		L133.181,4.395c-5.858-5.858-15.354-5.857-21.213,0l-31.82,31.82L48.329,4.394c-4.291-4.29-10.743-5.574-16.348-3.251
		c-5.604,2.321-9.26,7.791-9.26,13.858v300c0,8.284,6.717,15,15,15H292.28z M213.341,186.921c6.868,0,12.431,1.707,16.532,5.072
		c3.254,2.67,7.133,7.787,7.132,17.01v24.111c0,14.033-8.625,22.082-23.663,22.082c-15.043,0-23.67-8.049-23.67-22.082v-24.111
		C189.672,195.176,198.52,186.921,213.341,186.921z M188.6,128.9c1.219-2.606,3.743-4.158,6.777-4.158
		c4.074,0,8.435,3.331,8.435,8.288c0,1.386-0.292,2.644-0.893,3.846l-60.137,117.568c-1.412,2.836-4.172,4.553-7.36,4.557h-0.009
		c-4.402-0.004-8.122-3.652-8.122-7.967c0-1.244,0.3-2.482,0.892-3.679L188.6,128.9z M92.996,152.855
		c0-14.032,8.624-22.079,23.66-22.079c15.047,0,23.673,8.047,23.673,22.079v24.106c0,14.037-8.627,22.088-23.67,22.088
		c-15.037,0-23.662-8.05-23.663-22.086V152.855z"/>
	<path id="XMLID_795_" d="M213.341,240.054c6.816,0,7.734-3.508,7.734-6.939v-24.109c0-3.436-0.919-6.947-7.733-6.947
		c-1.841,0-4.348,0.283-5.832,1.636c-1.158,1.055-1.746,2.841-1.745,5.309v24.113c-0.001,2.467,0.587,4.252,1.743,5.304
		C208.993,239.771,211.5,240.054,213.341,240.054z"/>
	<path id="XMLID_796_" d="M116.661,183.907c6.819-0.002,7.739-3.512,7.739-6.945v-24.107c-0.001-3.434-0.921-6.945-7.74-6.945
		c-6.661,0-7.579,3.338-7.579,6.945v24.106C109.081,180.567,109.999,183.905,116.661,183.907z"/>
</g>
</svg>